<?xml version="1.0" encoding="UTF-8"?>
<svg version="1.1" xmlns="http://www.w3.org/2000/svg" width="512" height="512">
<path d="M0 0 C7.35884714 2.92148406 14.20133951 7.35522498 21 11.375 C23.12726524 12.62427522 25.25488158 13.87295275 27.3828125 15.12109375 C29.01911621 16.08184814 29.01911621 16.08184814 30.68847656 17.06201172 C36.07000918 20.21142236 41.47197683 23.32514629 46.875 26.4375 C47.95249512 27.05858643 49.02999023 27.67967285 50.14013672 28.31958008 C53.42645606 30.21357769 56.71316385 32.10689942 60 34 C73.6741218 41.87580724 87.33736974 49.76855846 100.96142578 57.73071289 C108.29312479 62.01244917 115.64282981 66.26220007 123 70.5 C131.34798459 75.30851844 139.68243184 80.13905683 148 85 C156.27777992 89.83676964 164.57026344 94.64716678 172.875 99.4375 C173.94073242 100.05431641 175.00646484 100.67113281 176.10449219 101.30664062 C181.18462202 104.24318485 186.2727422 107.16207301 191.39663696 110.02149963 C193.19411462 111.02575724 194.98835932 112.03556314 196.78173828 113.04711914 C199.03166718 114.31399097 201.28755658 115.57035678 203.55029297 116.81420898 C210.08712407 120.51228511 215.53834187 124.07668373 219 131 C219.09518414 132.37623204 219.12915312 133.75695391 219.13142776 135.13647175 C219.13526891 136.00821925 219.13911005 136.87996674 219.1430676 137.77813083 C219.14220112 138.74163162 219.14133463 139.70513241 219.14044189 140.6978302 C219.14489858 142.22643387 219.14489858 142.22643387 219.1494453 143.78591841 C219.15816206 147.22292839 219.15964305 150.65990366 219.16113281 154.09692383 C219.16575887 156.55212987 219.17078324 159.0073352 219.17617798 161.46253967 C219.18932423 168.14849548 219.19578767 174.83443762 219.20018864 181.52040315 C219.20294946 185.69379126 219.20718653 189.86717704 219.21169281 194.04056358 C219.22388705 205.5913939 219.2341859 217.14222235 219.2375679 228.69305897 C219.23778747 229.43263373 219.23800703 230.17220849 219.23823325 230.93419461 C219.23845153 231.67555811 219.23866981 232.41692161 219.2388947 233.18075067 C219.23933817 234.68308183 219.23978473 236.18541298 219.24023438 237.68774414 C219.2404558 238.43295528 219.24067723 239.17816642 219.24090537 239.94595971 C219.24485366 252.02195403 219.26230789 264.09788802 219.2855939 276.17385904 C219.30929855 288.56679491 219.32176936 300.95970049 219.32293582 313.3526594 C219.32385311 320.31297285 219.32961882 327.27320771 219.34775543 334.23349953 C219.36475152 340.77926157 219.36641566 347.3249006 219.35761642 353.87068748 C219.3568434 356.27614109 219.36122346 358.68160257 219.37107468 361.08703613 C219.38371527 364.36527702 219.37796012 367.6429823 219.36749268 370.92121887 C219.37957728 372.35643181 219.37957728 372.35643181 219.39190602 373.82063895 C219.35526174 378.7116865 219.19756204 382.04019013 216 386 C210.79848884 391.05242326 204.52945343 394.32655147 198.25 397.875 C196.49993101 398.87405513 194.74986705 399.87311921 193.00012207 400.8727417 C191.19183576 401.90488121 189.38215381 402.93453968 187.57226562 403.96386719 C182.033438 407.11697465 176.51800789 410.31065027 171 413.5 C168.83605708 414.74890513 166.67199418 415.9976024 164.5078125 417.24609375 C163.43563477 417.86468262 162.36345703 418.48327148 161.25878906 419.12060547 C157.98300434 421.00980166 154.70644107 422.89764109 151.4296875 424.78515625 C139.94693103 431.40141117 128.48039099 438.04390011 117.03857422 444.73071289 C108.61430661 449.65051282 100.16446104 454.52522138 91.7109375 459.39453125 C84.46048459 463.57349158 77.22516137 467.77747989 70 472 C59.57109313 478.09368945 49.11527643 484.13969911 38.6484375 490.16796875 C34.6306218 492.48207261 30.61524574 494.80028183 26.60336304 497.12464905 C24.2251401 498.50249503 21.8461928 499.87908785 19.46722412 501.25564575 C17.79403208 502.22450333 16.1218555 503.19511391 14.44970703 504.16577148 C13.42989746 504.75559814 12.41008789 505.3454248 11.359375 505.953125 C10.46702148 506.47036133 9.57466797 506.98759766 8.65527344 507.52050781 C2.01189323 511.22213378 -2.40484753 513.05651892 -10 512 C-17.35884714 509.07851594 -24.20133951 504.64477502 -31 500.625 C-33.12726524 499.37572478 -35.25488158 498.12704725 -37.3828125 496.87890625 C-38.47368164 496.23840332 -39.56455078 495.59790039 -40.68847656 494.93798828 C-46.07000918 491.78857764 -51.47197683 488.67485371 -56.875 485.5625 C-57.95249512 484.94141357 -59.02999023 484.32032715 -60.14013672 483.68041992 C-63.42645606 481.78642231 -66.71316385 479.89310058 -70 478 C-83.67554314 470.12337411 -97.33960958 462.22879908 -110.96582031 454.26708984 C-122.61659185 447.46412377 -134.30903744 440.73357814 -146 434 C-159.6615871 426.1314123 -173.32148826 418.26095562 -186.921875 410.28686523 C-191.68608547 407.4976064 -196.4602404 404.72988956 -201.26837158 402.0168457 C-203.64670638 400.67473759 -206.02128372 399.32604351 -208.39599609 397.97753906 C-210.07643767 397.02745603 -211.76275275 396.08778519 -213.44921875 395.1484375 C-226.81546738 387.55359785 -226.81546738 387.55359785 -229 381 C-229.0918598 379.58245767 -229.12908435 378.16099406 -229.13142776 376.74048042 C-229.13526891 375.86674188 -229.13911005 374.99300333 -229.1430676 374.09278786 C-229.14220112 373.13219991 -229.14133463 372.17161196 -229.14044189 371.18191528 C-229.14341302 370.16199175 -229.14638414 369.14206821 -229.1494453 368.0912379 C-229.15814999 364.65733399 -229.15964203 361.22346487 -229.16113281 357.78955078 C-229.16575968 355.33419724 -229.17078416 352.87884441 -229.17617798 350.42349243 C-229.18931542 343.74172794 -229.19578592 337.05997712 -229.20018864 330.37820292 C-229.2029507 326.20698704 -229.20718796 322.03577348 -229.21169281 317.86455917 C-229.22388495 306.31797748 -229.23418475 294.77139764 -229.2375679 283.22480965 C-229.23778747 282.48577001 -229.23800703 281.74673037 -229.23823325 280.98529559 C-229.23845153 280.24448019 -229.23866981 279.50366479 -229.2388947 278.74040043 C-229.23933817 277.23920576 -229.23978473 275.73801108 -229.24023438 274.23681641 C-229.2404558 273.49217077 -229.24067723 272.74752513 -229.24090537 271.98031448 C-229.2448545 259.91085025 -229.26231225 247.84144636 -229.2855939 235.77200545 C-229.30929826 223.38355798 -229.32176931 210.99514079 -229.32293582 198.60667026 C-229.32385304 191.64972515 -229.32961713 184.69285868 -229.34775543 177.73593521 C-229.3647509 171.19426377 -229.36641592 164.65271542 -229.35761642 158.11101913 C-229.3568434 155.70717723 -229.36122341 153.30332746 -229.37107468 150.89950562 C-229.38371524 147.62350765 -229.37796017 144.34804565 -229.36749268 141.072052 C-229.37554908 140.11592549 -229.38360548 139.15979899 -229.39190602 138.17469895 C-229.35524628 133.28501845 -229.19618739 129.95893203 -226 126 C-220.79847612 120.94756438 -214.52944113 117.67350205 -208.25 114.125 C-206.50204004 113.12699189 -204.75408499 112.12897504 -203.00643921 111.13041687 C-201.19899739 110.09865283 -199.39015163 109.06938604 -197.58105469 108.04052734 C-191.99876301 104.86317337 -186.43749216 101.64934723 -180.875 98.4375 C-179.79895508 97.81697754 -178.72291016 97.19645508 -177.61425781 96.55712891 C-170.39694618 92.39279436 -163.19445697 88.20367596 -156 84 C-142.26944812 75.97732489 -128.48922034 68.04141741 -114.70898438 60.10449219 C-103.12318234 53.43043688 -91.54446647 46.74535916 -80 40 C-69.57102966 33.90641822 -59.11527725 27.86030136 -48.6484375 21.83203125 C-44.6306218 19.51792739 -40.61524574 17.19971817 -36.60336304 14.87535095 C-34.2251401 13.49750497 -31.8461928 12.12091215 -29.46722412 10.74435425 C-27.79403208 9.77549667 -26.1218555 8.80488609 -24.44970703 7.83422852 C-22.91999268 6.94948853 -22.91999268 6.94948853 -21.359375 6.046875 C-20.46702148 5.52963867 -19.57466797 5.01240234 -18.65527344 4.47949219 C-12.01189323 0.77786622 -7.59515247 -1.05651892 0 0 Z M-11.0390625 35.7890625 C-12.60333984 36.69591797 -12.60333984 36.69591797 -14.19921875 37.62109375 C-15.32972656 38.28238281 -16.46023437 38.94367187 -17.625 39.625 C-18.8057723 40.31157174 -19.9867649 40.99776474 -21.16796875 41.68359375 C-24.20133345 43.4463037 -27.23166334 45.21415472 -30.26086426 46.98400879 C-32.88919437 48.51946127 -35.5189053 50.05254482 -38.1484375 51.5859375 C-41.08469225 53.29871212 -44.02061391 55.0120455 -46.95556641 56.72705078 C-55.38152678 61.64851806 -63.83354483 66.52407274 -72.2890625 71.39453125 C-79.53951541 75.57349158 -86.77483863 79.77747989 -94 84 C-107.73046817 92.02281678 -121.51078086 99.95858328 -135.29101562 107.89550781 C-140.70658138 111.01516973 -146.12063615 114.13738154 -151.53125 117.265625 C-155.42399238 119.51619095 -159.32159707 121.75775313 -163.22610474 123.98780823 C-166.02885195 125.59061564 -168.82634864 127.2025546 -171.625 128.8125 C-172.66930176 129.40554932 -173.71360352 129.99859863 -174.78955078 130.60961914 C-175.73813965 131.15739014 -176.68672852 131.70516113 -177.6640625 132.26953125 C-178.50404785 132.75010986 -179.3440332 133.23068848 -180.20947266 133.72583008 C-180.80034668 134.14630615 -181.3912207 134.56678223 -182 135 C-182 135.66 -182 136.32 -182 137 C-181.05253906 137.5261792 -181.05253906 137.5261792 -180.0859375 138.06298828 C-167.27384803 145.1867131 -154.52888366 152.3984889 -141.88476562 159.81689453 C-135.12567491 163.77664307 -128.32847899 167.66127489 -121.5 171.5 C-113.73007298 175.86963281 -106.00450408 180.30711086 -98.3125 184.8125 C-89.6532632 189.88328797 -80.96562138 194.90186339 -72.25 199.875 C-71.37578903 200.37391251 -71.37578903 200.37391251 -70.48391724 200.88290405 C-66.32350196 203.25683235 -62.16189252 205.62866277 -58 208 C-54.4269464 210.03583226 -50.85411139 212.07204128 -47.2824707 214.11035156 C-44.94670342 215.44332807 -42.6091176 216.77303376 -40.27026367 218.10058594 C-34.49353254 221.38941423 -28.75940543 224.73104208 -23.08203125 228.1875 C-21.43412598 229.18112549 -21.43412598 229.18112549 -19.75292969 230.19482422 C-17.67515647 231.45185476 -15.60621818 232.72364419 -13.54785156 234.01220703 C-12.16484863 234.84534424 -12.16484863 234.84534424 -10.75390625 235.6953125 C-9.95283447 236.19047363 -9.1517627 236.68563477 -8.32641602 237.19580078 C-5.97268884 238.25883342 -5.97268884 238.25883342 -3.42675781 237.26220703 C-2.62592773 236.84567871 -1.82509766 236.42915039 -1 236 C-0.39309326 235.69545898 0.21381348 235.39091797 0.83911133 235.07714844 C1.70185669 234.59810059 1.70185669 234.59810059 2.58203125 234.109375 C3.25387451 233.73707764 3.92571777 233.36478027 4.61791992 232.98120117 C5.34213135 232.57490479 6.06634277 232.1686084 6.8125 231.75 C7.59020752 231.31598877 8.36791504 230.88197754 9.16918945 230.43481445 C16.75468465 226.17924699 24.25782078 221.78429344 31.76098633 217.38574219 C38.63873282 213.35947955 45.55282462 209.40510407 52.5 205.5 C60.26994482 201.13039913 67.99549644 196.69288883 75.6875 192.1875 C84.34673501 187.11671308 93.03429694 182.09799159 101.75 177.125 C102.33347198 176.79205933 102.91694397 176.45911865 103.51809692 176.11608887 C106.48722636 174.42218833 109.45684417 172.72914626 112.42675781 171.03662109 C118.32801702 167.67347941 124.22686361 164.30611469 130.125 160.9375 C131.26598145 160.28595947 132.40696289 159.63441895 133.58251953 158.96313477 C143.07284642 153.53941899 152.54316052 148.08146058 162.00439453 142.60717773 C163.02645996 142.01622314 164.04852539 141.42526855 165.1015625 140.81640625 C166.00213379 140.29506104 166.90270508 139.77371582 167.83056641 139.23657227 C169.20075408 138.45556838 170.58936005 137.70531997 172 137 C172 136.34 172 135.68 172 135 C170.9162207 134.38294189 170.9162207 134.38294189 169.81054688 133.75341797 C156.14961858 125.97152151 142.50963683 118.15857684 128.93896484 110.2199707 C121.68178111 105.97611933 114.40843419 101.7611344 107.125 97.5625 C106.04605469 96.94052734 104.96710938 96.31855469 103.85546875 95.67773438 C100.57057008 93.78470874 97.28534897 91.89224402 94 90 C80.32729983 82.12501156 66.66486773 74.23408715 53.04296875 66.27148438 C44.59033772 61.3343037 36.10964363 56.4466341 27.62304688 51.56811523 C22.2405339 48.46811704 16.87534105 45.3430875 11.5390625 42.1640625 C10.52086426 41.55763916 9.50266602 40.95121582 8.45361328 40.32641602 C6.52509044 39.17469031 4.59887089 38.01909656 2.67529297 36.85913086 C1.82338379 36.35003174 0.97147461 35.84093262 0.09375 35.31640625 C-1.02483398 34.64266968 -1.02483398 34.64266968 -2.16601562 33.95532227 C-5.81803733 32.05298455 -7.71074358 33.85068014 -11.0390625 35.7890625 Z M-198 163 C-198 224.38 -198 285.76 -198 349 C-189.15504222 344.28268918 -180.42308559 339.59416498 -171.8125 334.5 C-162.99008264 329.31855789 -154.13766943 324.1936971 -145.25 319.125 C-144.37488266 318.62577026 -144.37488266 318.62577026 -143.48208618 318.11645508 C-140.50990609 316.42107276 -137.53729797 314.72644292 -134.56445312 313.03222656 C-129.86947619 310.3561218 -125.17771898 307.67438956 -120.48608398 304.99243164 C-118.1735555 303.67049595 -115.8604736 302.34954418 -113.54711914 301.02905273 C-108.09675885 297.91735898 -102.64938352 294.80083978 -97.21188354 291.66671753 C-94.65400599 290.19278477 -92.09452192 288.72165442 -89.53491211 287.25073242 C-88.31958879 286.55128309 -87.10504702 285.85047372 -85.89135742 285.14819336 C-68.74679429 275.22895892 -68.74679429 275.22895892 -61.1484375 276.421875 C-57.20311613 277.48352511 -54.06400429 279.31441244 -51.86328125 282.80078125 C-50.82962321 285.43403679 -50.66458456 287.54866229 -50.625 290.375 C-50.59664062 291.29023438 -50.56828125 292.20546875 -50.5390625 293.1484375 C-51.27981648 297.73106805 -53.18351805 300.65718412 -56.93994141 303.43408203 C-59.42057378 304.99411118 -61.94278752 306.44391401 -64.5 307.875 C-65.94511963 308.70584106 -65.94511963 308.70584106 -67.41943359 309.5534668 C-69.51011784 310.75296075 -71.60451412 311.94600274 -73.70214844 313.13330078 C-77.04053023 315.02294153 -80.36890812 316.92920714 -83.6953125 318.83984375 C-89.58827811 322.22095056 -95.48996017 325.58647897 -101.39453125 328.94726562 C-107.30797745 332.31324588 -113.21665924 335.68756871 -119.125 339.0625 C-119.70351715 339.39284241 -120.2820343 339.72318481 -120.87808228 340.0635376 C-129.37056671 344.91346637 -137.84590849 349.79251456 -146.3125 354.6875 C-158.16315183 361.53877134 -170.06876961 368.29018331 -182 375 C-182 375.66 -182 376.32 -182 377 C-181.2879541 377.40613525 -180.5759082 377.81227051 -179.84228516 378.23071289 C-157.51788527 390.96736675 -135.22891903 403.76252589 -113.03808594 416.73095703 C-105.70658767 421.01267714 -98.35701275 425.26229076 -91 429.5 C-82.65201365 434.30851945 -74.31771272 439.13930229 -66 444 C-57.34162978 449.05601425 -48.6769679 454.10097683 -40 459.125 C-38.91976562 459.75277344 -37.83953125 460.38054687 -36.7265625 461.02734375 C-35.70304688 461.61902344 -34.67953125 462.21070313 -33.625 462.8203125 C-32.73039063 463.33867676 -31.83578125 463.85704102 -30.9140625 464.39111328 C-27.33325713 466.36811625 -23.65849235 468.17075383 -20 470 C-20 402.35 -20 334.7 -20 265 C-39.97947993 253.4636298 -39.97947993 253.4636298 -60 242 C-70.08824636 236.24576087 -80.15515978 230.45535171 -90.2109375 224.64453125 C-98.12733791 220.07295377 -106.0600753 215.53053067 -114 211 C-124.07936325 205.2487031 -134.13999196 199.46580255 -144.18676758 193.65771484 C-149.89040092 190.36289963 -155.60111768 187.08115953 -161.32421875 183.8203125 C-161.93602493 183.47168152 -162.54783112 183.12305054 -163.17817688 182.76385498 C-165.61352692 181.3762482 -168.0489049 179.98869067 -170.48452759 178.6015625 C-178.04958713 174.29082958 -185.58248941 169.93846276 -193.00463867 165.38525391 C-195.33850239 163.70601552 -195.33850239 163.70601552 -198 163 Z M182.63671875 165.5 C181.70166504 166.04906006 180.76661133 166.59812012 179.80322266 167.16381836 C178.77503418 167.7697583 177.7468457 168.37569824 176.6875 169 C167.53192435 174.36960648 158.3468521 179.68227239 149.125 184.9375 C140.06891432 190.1002089 131.02535033 195.28365811 122 200.5 C112.42624773 206.03239114 102.83330642 211.53030585 93.22949219 217.01025391 C83.7392151 222.42615748 74.2691777 227.87643351 64.80883789 233.34448242 C59.12909949 236.6250247 53.44321762 239.89430165 47.74609375 243.14453125 C47.13480621 243.49333344 46.52351868 243.84213562 45.89370728 244.20150757 C42.97247218 245.86790613 40.05034027 247.53268996 37.12695312 249.1953125 C35.00053039 250.4071311 32.88505164 251.63841615 30.78260708 252.89137459 C28.14430073 254.42177508 25.48414728 255.67917937 22.67809391 256.87167168 C14.56978266 260.43702469 14.56978266 260.43702469 9.03126025 266.99781847 C7.48831938 272.88431797 7.86930375 278.92494467 8.07006836 284.95361328 C8.07486885 286.9747629 8.07216165 288.99594214 8.06254578 291.01707458 C8.05768177 296.48380587 8.15735623 301.94415252 8.27630305 307.40940332 C8.38283101 313.12789868 8.39258059 318.84655299 8.41273499 324.56588745 C8.46550209 335.3865395 8.60489688 346.20425958 8.77567631 357.02362239 C8.96592529 369.34484888 9.05921854 381.66621808 9.14449871 393.98854852 C9.32202861 419.32732244 9.6208954 444.66349672 10 470 C11.88619268 469.06691809 13.77121634 468.13147286 15.65576172 467.19506836 C16.70561249 466.67440292 17.75546326 466.15373749 18.83712769 465.61729431 C23.71409255 463.12352069 28.41481501 460.35515066 33.125 457.5625 C35.23140401 456.32359487 37.33818826 455.08533602 39.4453125 453.84765625 C40.52329102 453.21359863 41.60126953 452.57954102 42.71191406 451.92626953 C48.1246434 448.7553136 53.56267061 445.62852183 59 442.5 C67.34823364 437.69191864 75.68248549 432.86102761 84 428 C93.4099033 422.50054464 102.84470563 417.04550804 112.2890625 411.60546875 C120.51235002 406.86579349 128.71373271 402.08957294 136.90820312 397.30029297 C148.57763358 390.48536111 160.28853743 383.74235857 172 377 C172 376.34 172 375.68 172 375 C170.96166016 374.42838135 170.96166016 374.42838135 169.90234375 373.84521484 C156.55580866 366.48835501 143.26986739 359.05385465 130.12597656 351.33886719 C122.52982559 346.88269084 114.89943084 342.48887216 107.25 338.125 C106.66815948 337.79287506 106.08631897 337.46075012 105.48684692 337.11856079 C100.11150469 334.05034721 94.73430312 330.98541291 89.35351562 327.92675781 C82.30209385 323.91837785 75.2574197 319.89888165 68.2265625 315.85449219 C66.11921407 314.64327709 64.00991858 313.43544161 61.8984375 312.23144531 C59.09060488 310.62657264 56.29392716 309.00392788 53.5 307.375 C52.28086914 306.68422363 52.28086914 306.68422363 51.03710938 305.97949219 C46.4506502 303.27328273 43.44743757 300.9076222 41 296 C40.01061391 290.82027285 40.41753382 286.30472425 42.5625 281.5 C45.92115543 278.0552252 49.05196953 276.09995779 53.98730469 275.93261719 C60.58795864 276.48241855 65.38522619 278.90226888 71.0625 282.1875 C72.0114917 282.72068848 72.9604834 283.25387695 73.93823242 283.80322266 C76.97058346 285.51579011 79.98724927 287.25320442 83 289 C83.97517578 289.56509277 84.95035156 290.13018555 85.95507812 290.71240234 C89.91691785 293.01424968 93.87423527 295.32354036 97.82446289 297.64526367 C104.99858465 301.85797806 112.22987284 305.95551109 119.5 310 C128.63953597 315.08822275 137.70197444 320.29226141 146.72558594 325.58300781 C154.87223025 330.35511194 163.05352312 335.06421546 171.25 339.75 C171.86235504 340.10060486 172.47471008 340.45120972 173.10562134 340.81243896 C174.84574998 341.80848525 176.58691688 342.80271699 178.328125 343.796875 C179.3274707 344.36760742 180.32681641 344.93833984 181.35644531 345.52636719 C183.53917236 346.74311455 185.76486751 347.88243376 188 349 C188 287.62 188 226.24 188 163 C186.04926567 163 184.26018305 164.54275593 182.63671875 165.5 Z " fill="#000000" transform="translate(261,0)"/>
<path d="M0 0 C3.00109379 2.49026931 4.84336244 4.76504366 7 8 C7.26742554 11.05378723 7.26742554 11.05378723 7.29052734 14.85473633 C7.29724457 15.54779373 7.30396179 16.24085114 7.31088257 16.95491028 C7.32988809 19.2473568 7.33378829 21.53951083 7.3359375 23.83203125 C7.34236473 25.42762879 7.34909304 27.02322514 7.35610962 28.61882019 C7.36808951 31.96539033 7.37178982 35.3118572 7.37060547 38.65844727 C7.37040248 42.93915428 7.39767991 47.21919589 7.43214989 51.49974537 C7.45443127 54.79667681 7.4584426 58.0934486 7.45738602 61.39044762 C7.45974107 62.96805802 7.46855926 64.5456729 7.48405075 66.123209 C7.50373267 68.33496711 7.49786517 70.54529707 7.48583984 72.75708008 C7.48868988 74.01378006 7.49153992 75.27048004 7.49447632 76.56526184 C6.71073072 82.00932621 4.35072728 84.87375477 0.18922424 88.34364319 C-3.51377784 90.26683587 -5.87136807 90.50114063 -10.02758789 90.50170898 C-10.70318253 90.50711197 -11.37877716 90.51251495 -12.07484436 90.51808167 C-14.2912377 90.53051245 -16.50631762 90.51411949 -18.72265625 90.49609375 C-20.27152067 90.49624885 -21.82038548 90.49773972 -23.36924744 90.50050354 C-26.6080755 90.50188493 -29.84645931 90.48937231 -33.08520508 90.46655273 C-37.23023596 90.43814468 -41.37453055 90.44091515 -45.51961613 90.45364285 C-48.71530921 90.46060706 -51.91083298 90.45280274 -55.10650444 90.44038582 C-56.63467191 90.43588018 -58.16285761 90.43552675 -59.69102669 90.43945122 C-61.82833075 90.44237147 -63.96462982 90.42582041 -66.10180664 90.40405273 C-67.31614883 90.39864975 -68.53049103 90.39324677 -69.78163147 90.38768005 C-74.76675297 89.78717947 -77.2572793 87.7427207 -80.75 84.25 C-83.35343272 80.48948608 -84 78.56075832 -84 74 C-83.1133473 69.41118341 -81.93034313 65.98063195 -78.6875 62.5625 C-72.28715221 58.84136756 -66.56268814 58.7283592 -59.3515625 58.8046875 C-58.33903412 58.8075174 -57.32650574 58.81034729 -56.28329468 58.81326294 C-53.06374062 58.82441746 -49.84446935 58.84951354 -46.625 58.875 C-44.43620195 58.8850359 -42.24739951 58.89416069 -40.05859375 58.90234375 C-34.70563342 58.9243413 -29.35283692 58.95777176 -24 59 C-24.00666183 58.443694 -24.01332367 57.887388 -24.02018738 57.31422424 C-24.08689558 51.48989683 -24.13194688 45.66567911 -24.16479492 39.84106445 C-24.17982036 37.6714232 -24.20024653 35.50181202 -24.22631836 33.33227539 C-24.26297706 30.2019099 -24.27978926 27.0719483 -24.29296875 23.94140625 C-24.30845261 22.98166397 -24.32393646 22.02192169 -24.33988953 21.03309631 C-24.34163621 13.93918037 -23.73252849 6.9602392 -18.75 1.5625 C-12.28127431 -2.11291232 -6.88735814 -2.76528075 0 0 Z " fill="#000000" transform="translate(505,422)"/>
<path d="M0 0 C5.5000266 6.30885404 5.54684068 14.39098369 5.41796875 22.37890625 C5.41372391 23.38718979 5.40947906 24.39547333 5.40510559 25.43431091 C5.38844683 28.62315716 5.35081877 31.811348 5.3125 35 C5.29743661 37.17512102 5.28375112 39.35025204 5.27148438 41.52539062 C5.23858548 46.82964693 5.18851575 52.13352662 5.125 57.4375 C5.96278992 57.42750725 5.96278992 57.42750725 6.81750488 57.41731262 C12.65790012 57.3506748 18.49818643 57.30558192 24.33886719 57.27270508 C26.51534415 57.25766701 28.69179105 57.23723127 30.86816406 57.21118164 C34.00593508 57.1745791 37.1433036 57.15772339 40.28125 57.14453125 C41.24615356 57.12904739 42.21105713 57.11356354 43.2052002 57.09761047 C50.11800109 57.09590852 56.13847585 57.76534681 61.5 62.5625 C64.38949712 67.67468722 65.41573861 72.29330277 64.625 78.125 C62.82504414 82.09990252 60.59769014 84.80426422 57.125 87.4375 C53.71064116 88.57561961 51.05524183 88.58541329 47.45385742 88.61450195 C46.78030716 88.62107315 46.1067569 88.62764435 45.41279602 88.63441467 C43.18535241 88.65411339 40.95797611 88.6658025 38.73046875 88.67578125 C37.96842951 88.67985678 37.20639027 88.6839323 36.42125893 88.68813133 C32.38785703 88.70897739 28.35448901 88.72328546 24.32104492 88.73266602 C20.16143905 88.74372799 16.0023685 88.77812906 11.84295177 88.81783772 C8.63868739 88.84401844 5.4345503 88.8523591 2.23018837 88.85594749 C0.69722185 88.86080966 -0.83573912 88.87241323 -2.36860085 88.89098549 C-4.51805344 88.91540985 -6.66612412 88.91440695 -8.81567383 88.9074707 C-10.64742912 88.91627007 -10.64742912 88.91627007 -12.51618958 88.92524719 C-17.90579353 88.14259981 -20.77699505 85.7500024 -24.21765137 81.63720703 C-26.1607248 77.88587457 -26.38183861 75.45262022 -26.39257812 71.2421875 C-26.3995874 70.54869202 -26.40659668 69.85519653 -26.41381836 69.14068604 C-26.43132343 66.86420824 -26.41980371 64.58898889 -26.40625 62.3125 C-26.4089471 60.721189 -26.41283134 59.1298796 -26.41784668 57.53857422 C-26.42373154 54.20980071 -26.41521192 50.88145769 -26.39648438 47.55273438 C-26.37369491 43.29558036 -26.3868235 39.03943516 -26.41077423 34.78231812 C-26.42525994 31.49821433 -26.42061364 28.21434793 -26.41026306 24.93023682 C-26.40760341 23.36102172 -26.41083867 21.79178475 -26.42018127 20.22259521 C-26.43039336 18.02542411 -26.4147841 15.82986423 -26.39257812 13.6328125 C-26.38939575 12.38516113 -26.38621338 11.13750977 -26.38293457 9.85205078 C-25.63684341 4.83651075 -23.48386503 1.63383553 -19.4375 -1.375 C-12.63697945 -4.52646074 -6.51087742 -3.53852034 0 0 Z " fill="#000000" transform="translate(25.875,423.5625)"/>
<path d="M0 0 C1.03476723 -0.01730415 1.03476723 -0.01730415 2.09043884 -0.03495789 C4.37322258 -0.06927093 6.65573564 -0.08777076 8.9387207 -0.10327148 C10.1111328 -0.11362584 10.1111328 -0.11362584 11.30723 -0.12418938 C15.44668404 -0.160032 19.58600173 -0.18356459 23.72558594 -0.19726562 C27.98862781 -0.21378394 32.25000205 -0.2721594 36.51248455 -0.34040928 C39.80092593 -0.38533411 43.08897321 -0.39877046 46.37769508 -0.40388298 C47.94815138 -0.41174907 49.51859674 -0.43131075 51.08875084 -0.46310616 C64.88716809 -0.72400697 64.88716809 -0.72400697 70.14111328 3.69775391 C74.15249192 7.88398493 74.30695414 11.45637243 74.33813477 17.11694336 C74.34558212 18.14430855 74.34558212 18.14430855 74.35317993 19.19242859 C74.36777911 21.45715339 74.37459961 23.72180815 74.38012695 25.98657227 C74.38588005 27.56214398 74.39163776 29.13771567 74.3973999 30.71328735 C74.40790335 34.01695074 74.41375038 37.32058984 74.41723633 40.62426758 C74.42272115 44.85337367 74.44675147 49.08215782 74.47520828 53.31116295 C74.4938496 56.56599867 74.49904104 59.82075704 74.5005722 63.07564163 C74.50359566 64.63453558 74.51161386 66.19342827 74.52475739 67.75226974 C74.54185046 69.93527347 74.53993021 72.11749324 74.53344727 74.30053711 C74.53891571 76.16227066 74.53891571 76.16227066 74.54449463 78.06161499 C73.93863925 83.46334746 71.19216579 86.82486641 67.17700195 90.33813477 C61.3302324 92.28705795 55.23747933 92.33157921 49.67700195 89.65063477 C45.02122434 85.34404047 43.37294943 81.22528408 43.05674744 74.95256042 C43.05896805 74.12871353 43.06118866 73.30486664 43.06347656 72.45605469 C43.06355209 71.515457 43.06362762 70.57485931 43.06370544 69.60575867 C43.06886673 68.60349747 43.07402802 67.60123627 43.0793457 66.56860352 C43.08076065 65.53246414 43.0821756 64.49632477 43.08363342 63.42878723 C43.08921953 60.12770673 43.10176953 56.82669468 43.11450195 53.52563477 C43.11951875 51.28409929 43.12408134 49.04256275 43.12817383 46.80102539 C43.13918442 41.31337193 43.15590877 35.82575824 43.17700195 30.33813477 C42.56392181 30.34701721 41.95084167 30.35589966 41.31918335 30.36505127 C34.92764628 30.45367159 28.53628429 30.51393008 22.14428711 30.55786133 C19.76010039 30.5779537 17.3759628 30.60523258 14.99194336 30.63989258 C11.56131857 30.68851335 8.1313464 30.71112788 4.70043945 30.72875977 C3.6377182 30.74940491 2.57499695 30.77005005 1.48007202 30.7913208 C-4.62177376 30.79316324 -8.1924729 30.44050983 -12.82299805 26.33813477 C-15.79969091 22.54028526 -16.57510675 19.13069978 -16.82299805 14.33813477 C-15.86273139 8.76858815 -14.10240576 5.9912877 -9.82299805 2.33813477 C-6.17101477 -0.09652075 -4.35612062 0.05818095 0 0 Z " fill="#000000" transform="translate(437.822998046875,-0.338134765625)"/>
<path d="M0 0 C0.69349548 -0.0071553 1.38699097 -0.01431061 2.10150146 -0.02168274 C4.37824778 -0.03849715 6.65300444 -0.01921326 8.9296875 0.00219727 C10.52099774 0.00136788 12.11230789 -0.00109413 13.70361328 -0.00511169 C17.03249008 -0.00796469 20.36069219 0.00668173 23.68945312 0.03417969 C27.94664124 0.06826242 32.20262354 0.06223997 36.45986938 0.04351711 C39.74399789 0.03292529 43.02784803 0.04190457 46.31195068 0.05690193 C47.88115613 0.06206825 49.45039084 0.06162082 51.01959229 0.05535698 C53.21681759 0.04987795 55.41234363 0.07036166 57.609375 0.09765625 C58.85702637 0.10385483 60.10467773 0.11005341 61.39013672 0.11643982 C66.34964929 0.86397038 69.54232226 3.02049958 72.6171875 6.94360352 C74.65786327 11.56197499 75.03679154 15.28490006 74.1796875 20.25610352 C72.16570777 25.19950831 69.17925719 27.71472372 64.8046875 30.63110352 C62.54573059 30.87161255 62.54573059 30.87161255 59.87426758 30.8581543 C58.87345657 30.85800323 57.87264557 30.85785217 56.84150696 30.85769653 C55.76330185 30.84737396 54.68509674 30.83705139 53.57421875 30.82641602 C52.46866135 30.82358612 51.36310394 30.82075623 50.2240448 30.81784058 C46.68831622 30.80663353 43.1528397 30.78152778 39.6171875 30.75610352 C37.22200886 30.7460744 34.82682626 30.73694843 32.43164062 30.72875977 C26.55590339 30.70669249 20.68031345 30.67320969 14.8046875 30.63110352 C14.80912872 31.20437881 14.81356995 31.77765411 14.81814575 32.36830139 C14.86251775 38.35455829 14.8926114 44.34076818 14.91455078 50.32714844 C14.92458566 52.55893859 14.93821657 54.79071567 14.95556641 57.02246094 C14.97992511 60.23709345 14.99119597 63.45155155 15 66.66625977 C15.01032257 67.65819839 15.02064514 68.65013702 15.03128052 69.6721344 C15.0323672 76.43737396 14.97794783 82.12349544 10.3671875 87.44360352 C5.47188859 91.62251722 2.72055803 92.00864048 -3.53515625 91.88500977 C-8.76151302 91.38616514 -11.84163405 88.46387888 -15.1953125 84.63110352 C-16.34469965 81.18294205 -16.33640534 78.49037665 -16.35644531 74.85229492 C-16.36141022 74.1673848 -16.36637512 73.48247467 -16.37149048 72.77680969 C-16.38608965 70.51208489 -16.39291016 68.24743013 -16.3984375 65.98266602 C-16.40419059 64.4070943 -16.40994831 62.83152261 -16.41571045 61.25595093 C-16.4262139 57.95228754 -16.43206092 54.64864844 -16.43554688 51.3449707 C-16.4410317 47.11586461 -16.46506202 42.88708046 -16.49351883 38.65807533 C-16.51216015 35.40323961 -16.51735159 32.14848124 -16.51888275 28.89359665 C-16.5219062 27.3347027 -16.5299244 25.77581001 -16.54306793 24.21696854 C-16.560161 22.03396481 -16.55824076 19.85174504 -16.55175781 17.66870117 C-16.55540344 16.42754547 -16.55904907 15.18638977 -16.56280518 13.90762329 C-15.98703249 8.77410444 -14.03860723 6.48525997 -10.45751953 2.85804749 C-6.61074107 0.23204613 -4.61642859 0.00355861 0 0 Z " fill="#000000" transform="translate(16.1953125,-0.631103515625)"/>
</svg>
